<svg width="28" height="28" viewBox="0 0 28 28" fill="none" xmlns="http://www.w3.org/2000/svg">
<path fill-rule="evenodd" clip-rule="evenodd" d="M6.5 8.58333C6.5 7.43274 7.43274 6.5 8.58333 6.5H11.0833C12.2339 6.5 13.1667 7.43274 13.1667 8.58333V11.0833C13.1667 12.2339 12.2339 13.1667 11.0833 13.1667H8.58333C7.43274 13.1667 6.5 12.2339 6.5 11.0833V8.58333ZM8.58333 8.16667H11.0833C11.3135 8.16667 11.5 8.35321 11.5 8.58333V11.0833C11.5 11.3135 11.3135 11.5 11.0833 11.5H8.58333C8.35321 11.5 8.16667 11.3135 8.16667 11.0833V8.58333C8.16667 8.35321 8.35321 8.16667 8.58333 8.16667Z" fill="#667085"/>
<path fill-rule="evenodd" clip-rule="evenodd" d="M14.8333 8.58333C14.8333 7.43274 15.7661 6.5 16.9167 6.5H19.4167C20.5673 6.5 21.5 7.43274 21.5 8.58333V11.0833C21.5 12.2339 20.5673 13.1667 19.4167 13.1667H16.9167C15.7661 13.1667 14.8333 12.2339 14.8333 11.0833V8.58333ZM16.9167 8.16667H19.4167C19.6468 8.16667 19.8333 8.35321 19.8333 8.58333V11.0833C19.8333 11.3135 19.6468 11.5 19.4167 11.5H16.9167C16.6865 11.5 16.5 11.3135 16.5 11.0833V8.58333C16.5 8.35321 16.6865 8.16667 16.9167 8.16667Z" fill="#667085"/>
<path fill-rule="evenodd" clip-rule="evenodd" d="M16.9167 14.8333C15.7661 14.8333 14.8333 15.7661 14.8333 16.9167V19.4167C14.8333 20.5673 15.7661 21.5 16.9167 21.5H19.4167C20.5673 21.5 21.5 20.5673 21.5 19.4167V16.9167C21.5 15.7661 20.5673 14.8333 19.4167 14.8333H16.9167ZM19.4167 16.5H16.9167C16.6865 16.5 16.5 16.6865 16.5 16.9167V19.4167C16.5 19.6468 16.6865 19.8333 16.9167 19.8333H19.4167C19.6468 19.8333 19.8333 19.6468 19.8333 19.4167V16.9167C19.8333 16.6865 19.6468 16.5 19.4167 16.5Z" fill="#667085"/>
<path fill-rule="evenodd" clip-rule="evenodd" d="M6.5 16.9167C6.5 15.7661 7.43274 14.8333 8.58333 14.8333H11.0833C12.2339 14.8333 13.1667 15.7661 13.1667 16.9167V19.4167C13.1667 20.5673 12.2339 21.5 11.0833 21.5H8.58333C7.43274 21.5 6.5 20.5673 6.5 19.4167V16.9167ZM8.58333 16.5H11.0833C11.3135 16.5 11.5 16.6865 11.5 16.9167V19.4167C11.5 19.6468 11.3135 19.8333 11.0833 19.8333H8.58333C8.35321 19.8333 8.16667 19.6468 8.16667 19.4167V16.9167C8.16667 16.6865 8.35321 16.5 8.58333 16.5Z" fill="#667085"/>
</svg>
