<svg width="25" height="24" viewBox="0 0 25 24" fill="none" xmlns="http://www.w3.org/2000/svg">
<rect x="0.333008" width="24" height="24" rx="12" fill="#FC9532"/>
<path d="M19.1667 12.1667C19.1667 11.7985 18.8682 11.5 18.5 11.5H15.5C15.1318 11.5 14.8333 11.7985 14.8333 12.1667C14.8333 12.5349 15.1318 12.8334 15.5 12.8334H18.5C18.8682 12.8334 19.1667 12.5349 19.1667 12.1667Z" fill="white"/>
<path d="M17.1652 7.33483C16.9049 7.07448 16.4828 7.07448 16.2224 7.33483L14.1011 9.45615C13.8408 9.7165 13.8408 10.1386 14.1011 10.399C14.3615 10.6593 14.7836 10.6593 15.0439 10.399L17.1652 8.27764C17.4256 8.01729 17.4256 7.59518 17.1652 7.33483Z" fill="white"/>
<path d="M15.0439 13.9345C14.7835 13.6741 14.3614 13.6741 14.1011 13.9345C13.8407 14.1948 13.8407 14.6169 14.1011 14.8773L16.2224 16.9986C16.4828 17.259 16.9049 17.259 17.1652 16.9986C17.4256 16.7383 17.4256 16.3161 17.1652 16.0558L15.0439 13.9345Z" fill="white"/>
<path d="M13 15.3334C13 14.9652 12.7015 14.6667 12.3333 14.6667C11.9651 14.6667 11.6666 14.9652 11.6666 15.3334V18.3334C11.6666 18.7016 11.9651 19 12.3333 19C12.7015 19 13 18.7016 13 18.3334V15.3334Z" fill="white"/>
<path d="M13 6.00004C13 5.63185 12.7015 5.33337 12.3333 5.33337C11.9651 5.33337 11.6666 5.63185 11.6666 6.00004V9.00004C11.6666 9.36823 11.9651 9.66671 12.3333 9.66671C12.7015 9.66671 13 9.36823 13 9.00004V6.00004Z" fill="white"/>
<path d="M7.50142 7.33483C7.76177 7.07448 8.18388 7.07448 8.44423 7.33483L10.5655 9.45615C10.8259 9.7165 10.8259 10.1386 10.5655 10.399C10.3052 10.6593 9.88309 10.6593 9.62274 10.399L7.50142 8.27764C7.24107 8.01729 7.24107 7.59518 7.50142 7.33483Z" fill="white"/>
<path d="M9.62276 13.9345C9.88311 13.6741 10.3052 13.6741 10.5656 13.9345C10.8259 14.1948 10.8259 14.6169 10.5656 14.8773L8.44425 16.9986C8.1839 17.259 7.76179 17.259 7.50144 16.9986C7.24109 16.7383 7.24109 16.3161 7.50144 16.0558L9.62276 13.9345Z" fill="white"/>
<path d="M9.16667 11.5C9.53486 11.5 9.83333 11.7985 9.83333 12.1667C9.83333 12.5349 9.53486 12.8334 9.16667 12.8334H6.16667C5.79848 12.8334 5.5 12.5349 5.5 12.1667C5.5 11.7985 5.79848 11.5 6.16667 11.5H9.16667Z" fill="white"/>
</svg>
