<svg width="28" height="28" viewBox="0 0 28 28" fill="none" xmlns="http://www.w3.org/2000/svg">
<path d="M17.333 15.6666V17.5L18.6663 18.3333" stroke="#667085" stroke-width="1.5" stroke-linecap="round" stroke-linejoin="round"/>
<path d="M17.333 7.33337H18.9997C19.4417 7.33337 19.8656 7.50897 20.1782 7.82153C20.4907 8.13409 20.6663 8.55801 20.6663 9.00004V9.69337" stroke="#667085" stroke-width="1.5" stroke-linecap="round" stroke-linejoin="round"/>
<path d="M10.6663 7.33337H8.99967C8.55765 7.33337 8.13372 7.50897 7.82116 7.82153C7.5086 8.13409 7.33301 8.55801 7.33301 9.00004V20.6667C7.33301 21.1087 7.5086 21.5327 7.82116 21.8452C8.13372 22.1578 8.55765 22.3334 8.99967 22.3334H10.6663" stroke="#667085" stroke-width="1.5" stroke-linecap="round" stroke-linejoin="round"/>
<path d="M17.333 22.3334C20.0944 22.3334 22.333 20.0948 22.333 17.3334C22.333 14.572 20.0944 12.3334 17.333 12.3334C14.5716 12.3334 12.333 14.572 12.333 17.3334C12.333 20.0948 14.5716 22.3334 17.333 22.3334Z" stroke="#667085" stroke-width="1.5" stroke-linecap="round" stroke-linejoin="round"/>
<path d="M16.5003 5.66663H11.5003C11.0401 5.66663 10.667 6.03972 10.667 6.49996V8.16663C10.667 8.62686 11.0401 8.99996 11.5003 8.99996H16.5003C16.9606 8.99996 17.3337 8.62686 17.3337 8.16663V6.49996C17.3337 6.03972 16.9606 5.66663 16.5003 5.66663Z" stroke="#667085" stroke-width="1.5" stroke-linecap="round" stroke-linejoin="round"/>
</svg>
