<svg width="28" height="28" viewBox="0 0 28 28" fill="none" xmlns="http://www.w3.org/2000/svg">
<rect width="28" height="28" rx="6" fill="#1993D0"/>
<g clip-path="url(#clip0_154_41)">
<path d="M14.0003 22.3334C18.6027 22.3334 22.3337 18.6025 22.3337 14.0001C22.3337 9.39771 18.6027 5.66675 14.0003 5.66675C9.39795 5.66675 5.66699 9.39771 5.66699 14.0001C5.66699 18.6025 9.39795 22.3334 14.0003 22.3334Z" stroke="white" stroke-width="1.5" stroke-linecap="round" stroke-linejoin="round"/>
<path d="M14.0003 5.66675C11.8605 7.91354 10.667 10.8974 10.667 14.0001C10.667 17.1028 11.8605 20.0866 14.0003 22.3334C16.1401 20.0866 17.3337 17.1028 17.3337 14.0001C17.3337 10.8974 16.1401 7.91354 14.0003 5.66675Z" stroke="white" stroke-width="1.5" stroke-linecap="round" stroke-linejoin="round"/>
<path d="M5.66699 14H22.3337" stroke="white" stroke-width="1.5" stroke-linecap="round" stroke-linejoin="round"/>
</g>
<defs>
<clipPath id="clip0_154_41">
<rect width="20" height="20" fill="white" transform="translate(4 4)"/>
</clipPath>
</defs>
</svg>
