<svg width="118" height="38" viewBox="0 0 118 38" fill="none" xmlns="http://www.w3.org/2000/svg">
<path d="M83.0264 15.3483H86.3645H86.4062L94.8449 1.44043H91.373L86.3645 9.73168V7.1245H83.0264V15.3483Z" fill="#00A0E9"/>
<path d="M86.3645 7.12317H83.0264V15.347H86.3645V7.12317Z" fill="#006596"/>
<path d="M23.6374 27.6305H17.1315V31.6063C17.1315 32.0882 17.2909 32.4916 17.6135 32.8117C17.8538 33.0521 18.2157 33.1735 18.6976 33.1735C19.1795 33.1735 19.5413 33.0533 19.7817 32.8117C20.1018 32.4916 20.2636 32.0882 20.2636 31.6063V29.6785H23.6374V31.3646C23.6374 32.8915 23.1947 34.0969 22.3116 34.98C21.5894 35.782 20.3838 36.1842 18.6976 36.1842C17.0114 36.1842 15.8855 35.7807 15.0834 34.98C14.1981 34.0969 13.7578 32.8927 13.7578 31.3646V22.9312C13.7578 21.4853 14.2397 20.2798 15.2037 19.316C16.0866 18.433 17.2517 17.9902 18.6976 17.9902C20.1435 17.9902 21.3073 18.433 22.1915 19.316C23.1554 20.2798 23.6374 21.4841 23.6374 22.9312V27.6305ZM17.1315 24.7388H20.2648V22.5706C20.2648 22.0887 20.103 21.6877 19.7829 21.3664C19.5426 21.126 19.1808 21.0046 18.6988 21.0046C18.2168 21.0046 17.8551 21.1248 17.6146 21.3664C17.2934 21.6877 17.1327 22.0494 17.1327 22.4504V24.74L17.1315 24.7388Z" fill="#231815"/>
<path d="M36.5153 19.3172C37.3175 20.1217 37.7196 20.9642 37.7196 21.8484V32.0895C37.8791 33.5353 38.0397 34.8205 38.2017 35.9451H34.8279C34.8279 35.6238 34.7863 35.2645 34.7077 34.8611C33.6629 35.744 32.5788 36.1867 31.4542 36.1867C30.2499 36.1867 29.286 35.8249 28.5624 35.1026C27.7592 34.3006 27.3582 33.0153 27.3582 31.247C27.3582 29.4786 28.0008 27.8342 29.286 26.5477C30.7319 25.1019 32.4194 24.0987 34.3472 23.5358V22.5719C34.3472 22.0899 34.1853 21.6889 33.8652 21.3677C33.5439 21.0476 33.1429 20.8857 32.6609 20.8857C32.1789 20.8857 31.8172 21.0059 31.5769 21.2475C31.3364 21.4878 31.2151 21.8496 31.2151 22.3315V23.1752H27.8414V21.8496C27.8414 20.9667 28.3233 20.0419 29.2872 19.0781C30.0893 18.2761 31.1734 17.8738 32.5407 17.8738C34.2282 17.8738 35.5527 18.3558 36.5166 19.3197L36.5153 19.3172ZM34.3472 26.1847C33.3023 26.5869 32.3383 27.2295 31.4554 28.1124C30.7319 28.836 30.3713 29.7999 30.3713 31.0042C30.3713 32.531 30.933 33.2937 32.0588 33.2937C32.8608 33.2937 33.6248 32.7726 34.3484 31.7278V26.1859L34.3472 26.1847Z" fill="#231815"/>
<path d="M50.3987 19.1967C51.2817 20.0821 51.8421 21.2668 51.8986 23.2031H48.6965C48.6965 22.4011 48.5493 21.6874 48.2292 21.3649C47.8271 20.9639 47.3867 20.7628 46.9035 20.7628C46.3407 20.7628 45.9397 20.883 45.6992 21.1246C45.378 21.4458 45.2173 21.8481 45.2173 22.3288C45.2173 23.0523 46.0194 24.0567 47.6271 25.3407C48.8314 26.3046 49.8358 27.1888 50.6391 27.9908C51.603 28.9547 52.085 30.1197 52.085 31.4846C52.085 32.7711 51.6422 33.8551 50.7593 34.7381C49.7953 35.702 48.591 36.1839 47.1439 36.1839C45.4577 36.1839 44.1712 35.7412 43.2883 34.8583C42.4028 33.9754 41.8337 32.7588 41.6633 30.2804H44.9757C44.9757 31.3252 45.2173 32.0868 45.6992 32.5687C46.1003 32.9722 46.543 33.1708 47.025 33.1708C47.5866 33.1708 48.0282 33.0114 48.3507 32.6889C48.6708 32.3688 48.8326 31.8463 48.8326 31.1228C48.8326 30.2399 48.0686 29.1558 46.543 27.8693C45.0162 26.5854 43.8499 25.5406 43.0491 24.7361C42.4053 24.0947 42.0852 23.1309 42.0852 21.8444C42.0852 20.802 42.4862 19.8773 43.2895 19.0728C44.0915 18.2708 45.1756 17.8687 46.543 17.8687C48.2292 17.8687 49.5145 18.3113 50.3987 19.1943V19.1967Z" fill="#231815"/>
<path d="M8.73538 19.1969C9.61837 20.0824 10.1788 21.267 10.2352 23.2034H7.03319C7.03319 22.4014 6.88603 21.6875 6.56594 21.3651C6.1637 20.964 5.72343 20.7629 5.24025 20.7629C4.67734 20.7629 4.27633 20.8831 4.03596 21.1247C3.71465 21.446 3.554 21.8482 3.554 22.329C3.554 23.0525 4.35604 24.0569 5.9638 25.3408C7.16809 26.3048 8.17248 27.1889 8.97575 27.9909C9.93963 28.9549 10.4217 30.1198 10.4217 31.4848C10.4217 32.7712 9.97887 33.8553 9.09593 34.7383C8.13201 35.7021 6.92772 36.1841 5.48062 36.1841C3.79437 36.1841 2.50791 35.7414 1.62493 34.8584C0.739497 33.9755 0.170465 32.7589 0 30.2805H3.31241C3.31241 31.3254 3.554 32.0869 4.03596 32.5688C4.43698 32.9723 4.87969 33.171 5.36165 33.171C5.92333 33.171 6.36482 33.0116 6.68736 32.6891C7.00744 32.369 7.16932 31.8466 7.16932 31.123C7.16932 30.2401 6.4053 29.156 4.87969 27.8696C3.35287 26.5855 2.18661 25.5407 1.38579 24.7363C0.741949 24.0948 0.421869 23.131 0.421869 21.8446C0.421869 20.8022 0.82289 19.8775 1.62616 19.0731C2.42819 18.2711 3.5123 17.8688 4.87969 17.8688C6.56594 17.8688 7.85118 18.3115 8.73538 19.1944V19.1969Z" fill="#231815"/>
<path d="M65.6266 31.3635C65.6266 32.8903 65.1839 34.0958 64.301 34.9787C63.4977 35.7807 62.2921 36.183 60.6868 36.183C59.0816 36.183 57.8748 35.7795 57.0728 34.9787C56.1873 34.0958 55.7471 32.8915 55.7471 31.3635V22.8086C55.7471 21.2842 56.1873 20.0787 57.0728 19.1945C57.8748 18.3925 59.0803 17.9902 60.6868 17.9902C62.2934 17.9902 63.4977 18.3925 64.301 19.1945C65.1839 20.0799 65.6266 21.2842 65.6266 22.8086V31.3635ZM59.1196 31.7252C59.1196 32.2072 59.279 32.6095 59.6015 32.9295C59.8419 33.1699 60.2036 33.2913 60.6857 33.2913C61.1676 33.2913 61.5294 33.1711 61.7697 32.9295C62.0898 32.6095 62.2517 32.206 62.2517 31.7252V22.448C62.2517 21.966 62.0898 21.565 61.7697 21.2438C61.5294 21.0034 61.1676 20.882 60.6857 20.882C60.2036 20.882 59.8419 21.0022 59.6015 21.2438C59.2802 21.565 59.1196 21.9673 59.1196 22.448V31.7252Z" fill="#231815"/>
<path d="M86.4077 35.9414H83.0339V18.1093H86.4077V35.9414Z" fill="#231815"/>
<path d="M101.875 20.0384L94.4057 32.8094H102.117V35.9414H91.1521V32.8094L98.0198 21.2425H91.1521V18.1093H101.875V20.0371V20.0384Z" fill="#231815"/>
<path d="M115.191 27.631H108.685V31.6067C108.685 32.0887 108.844 32.4921 109.167 32.8122C109.407 33.0526 109.768 33.174 110.25 33.174C110.733 33.174 111.094 33.0538 111.335 32.8122C111.655 32.4921 111.817 32.0887 111.817 31.6067V29.6789H115.191V31.3651C115.191 32.892 114.748 34.0974 113.865 34.9804C113.142 35.7825 111.937 36.1846 110.25 36.1846C108.565 36.1846 107.438 35.7812 106.637 34.9804C105.752 34.0974 105.311 32.8931 105.311 31.3651V22.9317C105.311 21.4858 105.793 20.2803 106.757 19.3165C107.64 18.4334 108.805 17.9907 110.25 17.9907C111.697 17.9907 112.859 18.4334 113.745 19.3165C114.709 20.2803 115.191 21.4846 115.191 22.9317V27.631ZM108.685 24.7392H111.817V22.5711C111.817 22.0892 111.655 21.6882 111.335 21.3669C111.094 21.1265 110.733 21.0051 110.25 21.0051C109.768 21.0051 109.407 21.1253 109.167 21.3669C108.845 21.6882 108.685 22.0499 108.685 22.4509V24.7405V24.7392Z" fill="#231815"/>
<path d="M78.4038 19.1945C77.6005 18.3925 76.3949 17.9902 74.7896 17.9902C73.1843 17.9902 71.9776 18.3925 71.1756 19.1945C70.2901 20.0799 69.8499 21.2842 69.8499 22.8086V35.9304H73.2236V22.448C73.2236 21.966 73.383 21.565 73.7055 21.2438C73.9459 21.0034 74.3077 20.882 74.7896 20.882C75.2716 20.882 75.6333 21.0022 75.8738 21.2438C76.1938 21.565 76.3557 21.9673 76.3557 22.448V23.8607H79.7294V22.8097C79.7294 21.2855 79.2867 20.0799 78.4038 19.1958V19.1945Z" fill="#231815"/>
</svg>
